<mxfile host="drawio-plugin" modified="2023-04-12T03:09:39.817Z" agent="5.0 (Windows NT 6.2; Win64; x64) AppleWebKit/537.36 (KHTML, like Gecko) Chrome/104.0.5112.102 Safari/537.36" version="20.5.3" etag="AIm_j-Isi2Laz5aIjkbH" type="embed"><diagram id="LTcQ2JIDwLXgpyNfwhOs" name="Page-1"><mxGraphModel dx="725" dy="519" grid="0" gridSize="10" guides="1" tooltips="1" connect="1" arrows="1" fold="1" page="1" pageScale="1" pageWidth="850" pageHeight="1100" background="#ffffff" math="0" shadow="0"><root><mxCell id="0"/><mxCell id="1" parent="0"/><mxCell id="2" value="ADMIN" style="shape=umlActor;verticalLabelPosition=bottom;verticalAlign=top;html=1;outlineConnect=0;fillColor=#f5f5f5;fontColor=#333333;strokeColor=#666666;" vertex="1" parent="1"><mxGeometry x="400" y="240" width="40" height="80" as="geometry"/></mxCell><mxCell id="3" value="Band management" style="ellipse;whiteSpace=wrap;html=1;fillColor=#f5f5f5;fontColor=#333333;strokeColor=#666666;" vertex="1" parent="1"><mxGeometry x="200" y="40" width="120" height="40" as="geometry"/></mxCell><mxCell id="4" value="Song managment" style="ellipse;whiteSpace=wrap;html=1;fillColor=#f5f5f5;fontColor=#333333;strokeColor=#666666;" vertex="1" parent="1"><mxGeometry x="40" y="80" width="120" height="40" as="geometry"/></mxCell><mxCell id="5" value="Singer management" style="ellipse;whiteSpace=wrap;html=1;fillColor=#f5f5f5;fontColor=#333333;strokeColor=#666666;" vertex="1" parent="1"><mxGeometry x="360" y="40" width="120" height="40" as="geometry"/></mxCell><mxCell id="6" value="Category management" style="ellipse;whiteSpace=wrap;html=1;fillColor=#f5f5f5;fontColor=#333333;strokeColor=#666666;" vertex="1" parent="1"><mxGeometry x="520" y="80" width="120" height="40" as="geometry"/></mxCell><mxCell id="7" value="Login" style="ellipse;whiteSpace=wrap;html=1;fillColor=#f5f5f5;fontColor=#333333;strokeColor=#666666;" vertex="1" parent="1"><mxGeometry x="40" y="255" width="120" height="50" as="geometry"/></mxCell><mxCell id="8" value="PlayList management" style="ellipse;whiteSpace=wrap;html=1;fillColor=#f5f5f5;fontColor=#333333;strokeColor=#666666;" vertex="1" parent="1"><mxGeometry x="520" y="320" width="120" height="40" as="geometry"/></mxCell><mxCell id="9" value="MyPlaylist" style="ellipse;whiteSpace=wrap;html=1;fillColor=#f5f5f5;fontColor=#333333;strokeColor=#666666;" vertex="1" parent="1"><mxGeometry x="520" y="160" width="120" height="40" as="geometry"/></mxCell><mxCell id="10" style="edgeStyle=orthogonalEdgeStyle;rounded=0;orthogonalLoop=1;jettySize=auto;html=1;exitX=0.5;exitY=1;exitDx=0;exitDy=0;" edge="1" parent="1" source="8" target="8"><mxGeometry relative="1" as="geometry"/></mxCell><mxCell id="11" value="User management" style="ellipse;whiteSpace=wrap;html=1;fillColor=#f5f5f5;fontColor=#333333;strokeColor=#666666;" vertex="1" parent="1"><mxGeometry x="200" y="400" width="120" height="40" as="geometry"/></mxCell><mxCell id="12" value="Logout" style="ellipse;whiteSpace=wrap;html=1;fillColor=#f5f5f5;fontColor=#333333;strokeColor=#666666;" vertex="1" parent="1"><mxGeometry x="40" y="360" width="120" height="40" as="geometry"/></mxCell><mxCell id="13" value="" style="endArrow=classic;html=1;rounded=0;" edge="1" parent="1"><mxGeometry width="50" height="50" relative="1" as="geometry"><mxPoint x="350" y="240" as="sourcePoint"/><mxPoint x="400" y="190" as="targetPoint"/></mxGeometry></mxCell><mxCell id="14" value="" style="endArrow=classic;html=1;rounded=0;exitX=0.5;exitY=0.5;exitDx=0;exitDy=0;exitPerimeter=0;entryX=1;entryY=1;entryDx=0;entryDy=0;strokeColor=#000000;" edge="1" parent="1" source="2" target="4"><mxGeometry width="50" height="50" relative="1" as="geometry"><mxPoint x="350" y="240" as="sourcePoint"/><mxPoint x="400" y="190" as="targetPoint"/></mxGeometry></mxCell><mxCell id="15" value="" style="endArrow=classic;html=1;rounded=0;strokeColor=#000000;entryX=0.5;entryY=1;entryDx=0;entryDy=0;" edge="1" parent="1" target="3"><mxGeometry width="50" height="50" relative="1" as="geometry"><mxPoint x="420" y="280" as="sourcePoint"/><mxPoint x="400" y="190" as="targetPoint"/></mxGeometry></mxCell><mxCell id="16" value="" style="endArrow=classic;html=1;rounded=0;strokeColor=#000000;entryX=0.5;entryY=1;entryDx=0;entryDy=0;" edge="1" parent="1" target="5"><mxGeometry width="50" height="50" relative="1" as="geometry"><mxPoint x="420" y="280" as="sourcePoint"/><mxPoint x="420" y="90" as="targetPoint"/></mxGeometry></mxCell><mxCell id="17" value="" style="endArrow=classic;html=1;rounded=0;strokeColor=#000000;entryX=0;entryY=1;entryDx=0;entryDy=0;" edge="1" parent="1" target="6"><mxGeometry width="50" height="50" relative="1" as="geometry"><mxPoint x="420" y="280" as="sourcePoint"/><mxPoint x="400" y="190" as="targetPoint"/></mxGeometry></mxCell><mxCell id="18" value="" style="endArrow=classic;html=1;rounded=0;strokeColor=#000000;exitX=0.5;exitY=0.5;exitDx=0;exitDy=0;exitPerimeter=0;entryX=0;entryY=1;entryDx=0;entryDy=0;" edge="1" parent="1" source="2" target="9"><mxGeometry width="50" height="50" relative="1" as="geometry"><mxPoint x="380" y="290" as="sourcePoint"/><mxPoint x="400" y="190" as="targetPoint"/></mxGeometry></mxCell><mxCell id="19" value="" style="endArrow=classic;html=1;rounded=0;strokeColor=#000000;exitX=0.5;exitY=0.5;exitDx=0;exitDy=0;exitPerimeter=0;entryX=0;entryY=0;entryDx=0;entryDy=0;" edge="1" parent="1" source="2" target="8"><mxGeometry width="50" height="50" relative="1" as="geometry"><mxPoint x="350" y="310" as="sourcePoint"/><mxPoint x="400" y="260" as="targetPoint"/></mxGeometry></mxCell><mxCell id="20" value="" style="endArrow=classic;html=1;rounded=0;strokeColor=#000000;exitX=0.5;exitY=0.5;exitDx=0;exitDy=0;exitPerimeter=0;entryX=0.5;entryY=0;entryDx=0;entryDy=0;" edge="1" parent="1" source="2" target="11"><mxGeometry width="50" height="50" relative="1" as="geometry"><mxPoint x="350" y="310" as="sourcePoint"/><mxPoint x="400" y="260" as="targetPoint"/></mxGeometry></mxCell><mxCell id="21" value="" style="endArrow=classic;html=1;rounded=0;strokeColor=#000000;entryX=0.958;entryY=0.29;entryDx=0;entryDy=0;entryPerimeter=0;" edge="1" parent="1" target="12"><mxGeometry width="50" height="50" relative="1" as="geometry"><mxPoint x="420" y="280" as="sourcePoint"/><mxPoint x="400" y="260" as="targetPoint"/></mxGeometry></mxCell><mxCell id="22" value="" style="endArrow=classic;html=1;rounded=0;strokeColor=#000000;entryX=1;entryY=0.5;entryDx=0;entryDy=0;" edge="1" parent="1" target="7"><mxGeometry width="50" height="50" relative="1" as="geometry"><mxPoint x="420" y="280" as="sourcePoint"/><mxPoint x="400" y="220" as="targetPoint"/></mxGeometry></mxCell><mxCell id="23" value="" style="endArrow=classic;html=1;rounded=0;strokeColor=#000000;dashed=1;exitX=0.5;exitY=1;exitDx=0;exitDy=0;" edge="1" parent="1" source="4" target="7"><mxGeometry width="50" height="50" relative="1" as="geometry"><mxPoint x="350" y="270" as="sourcePoint"/><mxPoint x="400" y="220" as="targetPoint"/></mxGeometry></mxCell><mxCell id="24" value="" style="endArrow=classic;html=1;rounded=0;dashed=1;strokeColor=#000000;exitX=0.5;exitY=0;exitDx=0;exitDy=0;entryX=0.5;entryY=1;entryDx=0;entryDy=0;" edge="1" parent="1" source="12" target="7"><mxGeometry width="50" height="50" relative="1" as="geometry"><mxPoint x="350" y="270" as="sourcePoint"/><mxPoint x="400" y="220" as="targetPoint"/></mxGeometry></mxCell><mxCell id="25" value="" style="endArrow=classic;html=1;rounded=0;dashed=1;strokeColor=#000000;exitX=0.367;exitY=1.075;exitDx=0;exitDy=0;exitPerimeter=0;" edge="1" parent="1" source="3" target="7"><mxGeometry width="50" height="50" relative="1" as="geometry"><mxPoint x="350" y="270" as="sourcePoint"/><mxPoint x="400" y="220" as="targetPoint"/></mxGeometry></mxCell><mxCell id="26" value="" style="endArrow=classic;html=1;rounded=0;dashed=1;strokeColor=#000000;exitX=0.275;exitY=1;exitDx=0;exitDy=0;exitPerimeter=0;entryX=0.75;entryY=0.1;entryDx=0;entryDy=0;entryPerimeter=0;" edge="1" parent="1" source="5" target="7"><mxGeometry width="50" height="50" relative="1" as="geometry"><mxPoint x="350" y="270" as="sourcePoint"/><mxPoint x="400" y="220" as="targetPoint"/></mxGeometry></mxCell><mxCell id="27" value="" style="endArrow=classic;html=1;rounded=0;dashed=1;strokeColor=#000000;exitX=0;exitY=0.5;exitDx=0;exitDy=0;entryX=1;entryY=0;entryDx=0;entryDy=0;" edge="1" parent="1" source="6" target="7"><mxGeometry width="50" height="50" relative="1" as="geometry"><mxPoint x="350" y="270" as="sourcePoint"/><mxPoint x="400" y="220" as="targetPoint"/></mxGeometry></mxCell><mxCell id="28" value="" style="endArrow=classic;html=1;rounded=0;dashed=1;strokeColor=#000000;exitX=0.017;exitY=0.675;exitDx=0;exitDy=0;exitPerimeter=0;entryX=0.942;entryY=0.26;entryDx=0;entryDy=0;entryPerimeter=0;" edge="1" parent="1" source="9" target="7"><mxGeometry width="50" height="50" relative="1" as="geometry"><mxPoint x="350" y="270" as="sourcePoint"/><mxPoint x="400" y="220" as="targetPoint"/></mxGeometry></mxCell><mxCell id="29" value="" style="endArrow=classic;html=1;rounded=0;dashed=1;strokeColor=#000000;exitX=0.417;exitY=-0.03;exitDx=0;exitDy=0;exitPerimeter=0;" edge="1" parent="1" source="11"><mxGeometry width="50" height="50" relative="1" as="geometry"><mxPoint x="350" y="290" as="sourcePoint"/><mxPoint x="120" y="300" as="targetPoint"/></mxGeometry></mxCell><mxCell id="30" value="" style="endArrow=classic;html=1;rounded=0;dashed=1;strokeColor=#000000;exitX=0;exitY=0.5;exitDx=0;exitDy=0;entryX=1;entryY=1;entryDx=0;entryDy=0;" edge="1" parent="1" source="8" target="7"><mxGeometry width="50" height="50" relative="1" as="geometry"><mxPoint x="350" y="290" as="sourcePoint"/><mxPoint x="400" y="240" as="targetPoint"/></mxGeometry></mxCell><mxCell id="31" value="&lt;font style=&quot;font-size: 14px;&quot; color=&quot;#000000&quot;&gt;Mô hình UseCase ADMIN&lt;/font&gt;" style="text;html=1;align=center;verticalAlign=middle;resizable=0;points=[];autosize=1;strokeColor=none;fillColor=none;" vertex="1" parent="1"><mxGeometry x="240" y="500" width="180" height="30" as="geometry"/></mxCell><mxCell id="33" value="Account Settings" style="ellipse;whiteSpace=wrap;html=1;fillColor=#f5f5f5;fontColor=#333333;strokeColor=#666666;" vertex="1" parent="1"><mxGeometry x="360" y="400" width="120" height="40" as="geometry"/></mxCell><mxCell id="35" value="" style="endArrow=classic;html=1;rounded=0;dashed=1;strokeColor=#000000;fontSize=15;fontColor=#000000;exitX=0;exitY=0;exitDx=0;exitDy=0;" edge="1" parent="1" source="33"><mxGeometry width="50" height="50" relative="1" as="geometry"><mxPoint x="350" y="310" as="sourcePoint"/><mxPoint x="140" y="300" as="targetPoint"/></mxGeometry></mxCell><mxCell id="36" value="" style="endArrow=classic;html=1;rounded=0;strokeColor=#000000;fontSize=15;fontColor=#000000;" edge="1" parent="1" target="33"><mxGeometry width="50" height="50" relative="1" as="geometry"><mxPoint x="420" y="280" as="sourcePoint"/><mxPoint x="400" y="260" as="targetPoint"/></mxGeometry></mxCell></root></mxGraphModel></diagram></mxfile>